<mxfile host="app.diagrams.net" modified="2023-05-31T03:35:22.330Z" agent="Mozilla/5.0 (Windows NT 10.0; Win64; x64) AppleWebKit/537.36 (KHTML, like Gecko) Chrome/113.0.0.0 Safari/537.36" etag="-aRaLunafE2gwRZOGTRY" version="21.3.5" type="device">
  <diagram name="第 1 页" id="fh3ZosyT1Zv08FELtHRa">
    <mxGraphModel dx="2440" dy="1322" grid="1" gridSize="10" guides="1" tooltips="1" connect="1" arrows="1" fold="1" page="1" pageScale="1" pageWidth="827" pageHeight="1169" math="0" shadow="0">
      <root>
        <mxCell id="0" />
        <mxCell id="1" parent="0" />
        <mxCell id="V8VaNr1JuLreDsyv9vzp-1" value="&lt;i&gt;VisualComponent&lt;/i&gt;" style="swimlane;fontStyle=1;align=center;verticalAlign=top;childLayout=stackLayout;horizontal=1;startSize=26;horizontalStack=0;resizeParent=1;resizeParentMax=0;resizeLast=0;collapsible=1;marginBottom=0;whiteSpace=wrap;html=1;" vertex="1" parent="1">
          <mxGeometry x="340" y="340" width="160" height="60" as="geometry" />
        </mxCell>
        <mxCell id="V8VaNr1JuLreDsyv9vzp-3" value="" style="line;strokeWidth=1;fillColor=none;align=left;verticalAlign=middle;spacingTop=-1;spacingLeft=3;spacingRight=3;rotatable=0;labelPosition=right;points=[];portConstraint=eastwest;strokeColor=inherit;" vertex="1" parent="V8VaNr1JuLreDsyv9vzp-1">
          <mxGeometry y="26" width="160" height="8" as="geometry" />
        </mxCell>
        <mxCell id="V8VaNr1JuLreDsyv9vzp-4" value="+ Draw()" style="text;strokeColor=none;fillColor=none;align=left;verticalAlign=top;spacingLeft=4;spacingRight=4;overflow=hidden;rotatable=0;points=[[0,0.5],[1,0.5]];portConstraint=eastwest;whiteSpace=wrap;html=1;" vertex="1" parent="V8VaNr1JuLreDsyv9vzp-1">
          <mxGeometry y="34" width="160" height="26" as="geometry" />
        </mxCell>
        <mxCell id="V8VaNr1JuLreDsyv9vzp-5" value="TextView" style="swimlane;fontStyle=1;align=center;verticalAlign=top;childLayout=stackLayout;horizontal=1;startSize=26;horizontalStack=0;resizeParent=1;resizeParentMax=0;resizeLast=0;collapsible=1;marginBottom=0;whiteSpace=wrap;html=1;" vertex="1" parent="1">
          <mxGeometry x="200" y="490" width="160" height="60" as="geometry" />
        </mxCell>
        <mxCell id="V8VaNr1JuLreDsyv9vzp-7" value="" style="line;strokeWidth=1;fillColor=none;align=left;verticalAlign=middle;spacingTop=-1;spacingLeft=3;spacingRight=3;rotatable=0;labelPosition=right;points=[];portConstraint=eastwest;strokeColor=inherit;" vertex="1" parent="V8VaNr1JuLreDsyv9vzp-5">
          <mxGeometry y="26" width="160" height="8" as="geometry" />
        </mxCell>
        <mxCell id="V8VaNr1JuLreDsyv9vzp-8" value="+ Draw()" style="text;strokeColor=none;fillColor=none;align=left;verticalAlign=top;spacingLeft=4;spacingRight=4;overflow=hidden;rotatable=0;points=[[0,0.5],[1,0.5]];portConstraint=eastwest;whiteSpace=wrap;html=1;" vertex="1" parent="V8VaNr1JuLreDsyv9vzp-5">
          <mxGeometry y="34" width="160" height="26" as="geometry" />
        </mxCell>
        <mxCell id="V8VaNr1JuLreDsyv9vzp-9" value="Decorator" style="swimlane;fontStyle=1;align=center;verticalAlign=top;childLayout=stackLayout;horizontal=1;startSize=26;horizontalStack=0;resizeParent=1;resizeParentMax=0;resizeLast=0;collapsible=1;marginBottom=0;whiteSpace=wrap;html=1;" vertex="1" parent="1">
          <mxGeometry x="490" y="490" width="160" height="86" as="geometry" />
        </mxCell>
        <mxCell id="V8VaNr1JuLreDsyv9vzp-10" value="+ compoent" style="text;strokeColor=none;fillColor=none;align=left;verticalAlign=top;spacingLeft=4;spacingRight=4;overflow=hidden;rotatable=0;points=[[0,0.5],[1,0.5]];portConstraint=eastwest;whiteSpace=wrap;html=1;" vertex="1" parent="V8VaNr1JuLreDsyv9vzp-9">
          <mxGeometry y="26" width="160" height="26" as="geometry" />
        </mxCell>
        <mxCell id="V8VaNr1JuLreDsyv9vzp-11" value="" style="line;strokeWidth=1;fillColor=none;align=left;verticalAlign=middle;spacingTop=-1;spacingLeft=3;spacingRight=3;rotatable=0;labelPosition=right;points=[];portConstraint=eastwest;strokeColor=inherit;" vertex="1" parent="V8VaNr1JuLreDsyv9vzp-9">
          <mxGeometry y="52" width="160" height="8" as="geometry" />
        </mxCell>
        <mxCell id="V8VaNr1JuLreDsyv9vzp-12" value="+ Draw()" style="text;strokeColor=none;fillColor=none;align=left;verticalAlign=top;spacingLeft=4;spacingRight=4;overflow=hidden;rotatable=0;points=[[0,0.5],[1,0.5]];portConstraint=eastwest;whiteSpace=wrap;html=1;" vertex="1" parent="V8VaNr1JuLreDsyv9vzp-9">
          <mxGeometry y="60" width="160" height="26" as="geometry" />
        </mxCell>
        <mxCell id="V8VaNr1JuLreDsyv9vzp-13" value="Extends" style="endArrow=block;endSize=16;endFill=0;html=1;rounded=0;entryX=0.558;entryY=1.051;entryDx=0;entryDy=0;entryPerimeter=0;exitX=0.452;exitY=0.019;exitDx=0;exitDy=0;exitPerimeter=0;" edge="1" parent="1" source="V8VaNr1JuLreDsyv9vzp-5" target="V8VaNr1JuLreDsyv9vzp-4">
          <mxGeometry width="160" relative="1" as="geometry">
            <mxPoint x="440" y="520" as="sourcePoint" />
            <mxPoint x="600" y="520" as="targetPoint" />
          </mxGeometry>
        </mxCell>
        <mxCell id="V8VaNr1JuLreDsyv9vzp-14" value="Extends" style="endArrow=block;endSize=16;endFill=0;html=1;rounded=0;entryX=0.635;entryY=0.949;entryDx=0;entryDy=0;entryPerimeter=0;exitX=0.569;exitY=0.019;exitDx=0;exitDy=0;exitPerimeter=0;" edge="1" parent="1" source="V8VaNr1JuLreDsyv9vzp-9" target="V8VaNr1JuLreDsyv9vzp-4">
          <mxGeometry width="160" relative="1" as="geometry">
            <mxPoint x="292" y="492" as="sourcePoint" />
            <mxPoint x="439" y="411" as="targetPoint" />
          </mxGeometry>
        </mxCell>
        <mxCell id="V8VaNr1JuLreDsyv9vzp-15" value="1" style="endArrow=open;html=1;endSize=12;startArrow=diamondThin;startSize=14;startFill=1;edgeStyle=orthogonalEdgeStyle;align=left;verticalAlign=bottom;rounded=0;entryX=1;entryY=0.5;entryDx=0;entryDy=0;exitX=1.021;exitY=0.186;exitDx=0;exitDy=0;exitPerimeter=0;" edge="1" parent="1" source="V8VaNr1JuLreDsyv9vzp-9" target="V8VaNr1JuLreDsyv9vzp-1">
          <mxGeometry x="-1" y="3" relative="1" as="geometry">
            <mxPoint x="820" y="580" as="sourcePoint" />
            <mxPoint x="980" y="580" as="targetPoint" />
          </mxGeometry>
        </mxCell>
        <mxCell id="V8VaNr1JuLreDsyv9vzp-16" value="component" style="edgeLabel;html=1;align=center;verticalAlign=middle;resizable=0;points=[];" vertex="1" connectable="0" parent="V8VaNr1JuLreDsyv9vzp-15">
          <mxGeometry x="-0.7117" y="-2" relative="1" as="geometry">
            <mxPoint as="offset" />
          </mxGeometry>
        </mxCell>
        <mxCell id="V8VaNr1JuLreDsyv9vzp-17" value="" style="endArrow=block;dashed=1;endFill=0;endSize=12;html=1;rounded=0;exitX=1.006;exitY=0.374;exitDx=0;exitDy=0;exitPerimeter=0;" edge="1" parent="1" source="V8VaNr1JuLreDsyv9vzp-12" target="V8VaNr1JuLreDsyv9vzp-18">
          <mxGeometry width="160" relative="1" as="geometry">
            <mxPoint x="790" y="690" as="sourcePoint" />
            <mxPoint x="810" y="563" as="targetPoint" />
          </mxGeometry>
        </mxCell>
        <mxCell id="V8VaNr1JuLreDsyv9vzp-18" value="componetn-&amp;gt;Draw()" style="html=1;whiteSpace=wrap;" vertex="1" parent="1">
          <mxGeometry x="755" y="538" width="110" height="50" as="geometry" />
        </mxCell>
        <mxCell id="V8VaNr1JuLreDsyv9vzp-20" value="ScrollDecorator" style="swimlane;fontStyle=1;align=center;verticalAlign=top;childLayout=stackLayout;horizontal=1;startSize=26;horizontalStack=0;resizeParent=1;resizeParentMax=0;resizeLast=0;collapsible=1;marginBottom=0;whiteSpace=wrap;html=1;" vertex="1" parent="1">
          <mxGeometry x="334" y="710" width="160" height="100" as="geometry" />
        </mxCell>
        <mxCell id="V8VaNr1JuLreDsyv9vzp-21" value="+ scrollPosition" style="text;strokeColor=none;fillColor=none;align=left;verticalAlign=top;spacingLeft=4;spacingRight=4;overflow=hidden;rotatable=0;points=[[0,0.5],[1,0.5]];portConstraint=eastwest;whiteSpace=wrap;html=1;" vertex="1" parent="V8VaNr1JuLreDsyv9vzp-20">
          <mxGeometry y="26" width="160" height="26" as="geometry" />
        </mxCell>
        <mxCell id="V8VaNr1JuLreDsyv9vzp-22" value="" style="line;strokeWidth=1;fillColor=none;align=left;verticalAlign=middle;spacingTop=-1;spacingLeft=3;spacingRight=3;rotatable=0;labelPosition=right;points=[];portConstraint=eastwest;strokeColor=inherit;" vertex="1" parent="V8VaNr1JuLreDsyv9vzp-20">
          <mxGeometry y="52" width="160" height="8" as="geometry" />
        </mxCell>
        <mxCell id="V8VaNr1JuLreDsyv9vzp-23" value="+ Draw()&lt;br&gt;+ ScrollPosition()" style="text;strokeColor=none;fillColor=none;align=left;verticalAlign=top;spacingLeft=4;spacingRight=4;overflow=hidden;rotatable=0;points=[[0,0.5],[1,0.5]];portConstraint=eastwest;whiteSpace=wrap;html=1;" vertex="1" parent="V8VaNr1JuLreDsyv9vzp-20">
          <mxGeometry y="60" width="160" height="40" as="geometry" />
        </mxCell>
        <mxCell id="V8VaNr1JuLreDsyv9vzp-24" value="BorderDecorator" style="swimlane;fontStyle=1;align=center;verticalAlign=top;childLayout=stackLayout;horizontal=1;startSize=26;horizontalStack=0;resizeParent=1;resizeParentMax=0;resizeLast=0;collapsible=1;marginBottom=0;whiteSpace=wrap;html=1;" vertex="1" parent="1">
          <mxGeometry x="595" y="710" width="160" height="100" as="geometry" />
        </mxCell>
        <mxCell id="V8VaNr1JuLreDsyv9vzp-25" value="+ borderWidth" style="text;strokeColor=none;fillColor=none;align=left;verticalAlign=top;spacingLeft=4;spacingRight=4;overflow=hidden;rotatable=0;points=[[0,0.5],[1,0.5]];portConstraint=eastwest;whiteSpace=wrap;html=1;" vertex="1" parent="V8VaNr1JuLreDsyv9vzp-24">
          <mxGeometry y="26" width="160" height="26" as="geometry" />
        </mxCell>
        <mxCell id="V8VaNr1JuLreDsyv9vzp-26" value="" style="line;strokeWidth=1;fillColor=none;align=left;verticalAlign=middle;spacingTop=-1;spacingLeft=3;spacingRight=3;rotatable=0;labelPosition=right;points=[];portConstraint=eastwest;strokeColor=inherit;" vertex="1" parent="V8VaNr1JuLreDsyv9vzp-24">
          <mxGeometry y="52" width="160" height="8" as="geometry" />
        </mxCell>
        <mxCell id="V8VaNr1JuLreDsyv9vzp-27" value="+ Draw()&lt;br&gt;+DrawBorder()" style="text;strokeColor=none;fillColor=none;align=left;verticalAlign=top;spacingLeft=4;spacingRight=4;overflow=hidden;rotatable=0;points=[[0,0.5],[1,0.5]];portConstraint=eastwest;whiteSpace=wrap;html=1;" vertex="1" parent="V8VaNr1JuLreDsyv9vzp-24">
          <mxGeometry y="60" width="160" height="40" as="geometry" />
        </mxCell>
        <mxCell id="V8VaNr1JuLreDsyv9vzp-28" value="Extends" style="endArrow=block;endSize=16;endFill=0;html=1;rounded=0;entryX=0.463;entryY=0.989;entryDx=0;entryDy=0;entryPerimeter=0;exitX=0.5;exitY=0;exitDx=0;exitDy=0;" edge="1" parent="1" source="V8VaNr1JuLreDsyv9vzp-24" target="V8VaNr1JuLreDsyv9vzp-12">
          <mxGeometry width="160" relative="1" as="geometry">
            <mxPoint x="870" y="840" as="sourcePoint" />
            <mxPoint x="1030" y="840" as="targetPoint" />
          </mxGeometry>
        </mxCell>
        <mxCell id="V8VaNr1JuLreDsyv9vzp-29" value="Extends" style="endArrow=block;endSize=16;endFill=0;html=1;rounded=0;exitX=0.431;exitY=0;exitDx=0;exitDy=0;exitPerimeter=0;" edge="1" parent="1" source="V8VaNr1JuLreDsyv9vzp-20" target="V8VaNr1JuLreDsyv9vzp-12">
          <mxGeometry width="160" relative="1" as="geometry">
            <mxPoint x="685" y="720" as="sourcePoint" />
            <mxPoint x="574" y="586" as="targetPoint" />
          </mxGeometry>
        </mxCell>
        <mxCell id="V8VaNr1JuLreDsyv9vzp-30" value="" style="endArrow=block;dashed=1;endFill=0;endSize=12;html=1;rounded=0;" edge="1" parent="1" source="V8VaNr1JuLreDsyv9vzp-27" target="V8VaNr1JuLreDsyv9vzp-31">
          <mxGeometry width="160" relative="1" as="geometry">
            <mxPoint x="870" y="860" as="sourcePoint" />
            <mxPoint x="890" y="800" as="targetPoint" />
          </mxGeometry>
        </mxCell>
        <mxCell id="V8VaNr1JuLreDsyv9vzp-31" value="Decorator-&amp;gt;Draw()&lt;br&gt;DrawBorder();" style="html=1;whiteSpace=wrap;" vertex="1" parent="1">
          <mxGeometry x="835" y="765" width="110" height="50" as="geometry" />
        </mxCell>
      </root>
    </mxGraphModel>
  </diagram>
</mxfile>
